<?xml version="1.0" encoding="utf-8"?>
<!-- Generator: Adobe Illustrator 25.2.1, SVG Export Plug-In . SVG Version: 6.00 Build 0)  -->
<svg version="1.1" id="预览" xmlns="http://www.w3.org/2000/svg" x="0px"
     y="0px"
     viewBox="0 0 2400 2400" style="enable-background:new 0 0 2400 2400;" xml:space="preserve">
<style type="text/css">
	.st0{fill-rule:evenodd;clip-rule:evenodd;fill:#B8E2F9;}
</style>
    <g id="组合">
	<path id="字" class="st0" d="M1819.3,2128v-9.5h124.3v9.5H1819.3z M1708.3,2211.2c6.1,3.6,18.4,3.9,36.8,1l-1,10.7
		c-20.8,2.7-34.9,1.6-42.4-3.3c-7.2-4.6-10.7-14.6-10.7-29.9v-93.3l-35.3,0.2l0.5-5.4l-0.8-2.8h35.5v-38.9c0-1.8-0.2-3.6-0.8-5.4
		c4.6,1,7.9,1.4,10,1.3v43h41.9l-1,8.2l-40.9-0.2v93.3C1700.2,2200.9,1702.9,2208.1,1708.3,2211.2L1708.3,2211.2z M1619.9,2027.5
		c-5.3,0.8-8.9,2.8-10.7,5.9c-2.1,3.1-3.1,8.3-3.1,15.6v35.3h36.3l-1,8.9l-35.3-0.3v133.2h-10V2093l-26.1,0.3l0.8-5.6l-1-3.3h26.3
		V2049c0-12.3,2.6-20.6,7.7-25.1c5.1-4.6,15-7,29.7-7.2c5.8,0,11.6,0.4,17.4,1.3l-2,9.5C1639.2,2026.2,1629.5,2026.2,1619.9,2027.5
		L1619.9,2027.5z M1542.4,2221.4v-15.1c-7.7,12.8-25,19.2-51.9,19.2c-19.8,0-35.3-6.1-46.5-18.2c-11.2-11.9-16.9-28.1-16.9-48.6
		c0-22,6-39.3,17.9-51.9c11.4-12.1,26.6-18.2,45.5-18.2c25.7,0,43,4.7,51.9,14.1v-6.4l1-2.1h8.4v129.4h-8.7L1542.4,2221.4z
		 M1542.4,2123.4c-2.9-9.7-8.6-16.4-17.1-20.2c-7.7-3.6-19.3-5.4-34.8-5.4c-15.8,0-28.6,5.1-38.1,15.3
		c-10.2,10.9-15.3,26.1-15.3,45.5c0,18.9,4.9,33.3,14.8,43.2c9.2,9.6,22.1,14.3,38.6,14.3c28.6,0,45.9-10.8,51.9-32.5V2123.4z
		 M1356,2102.2c-7,6.8-10.5,26.4-10.5,58.8v63.4h-12v-135.3c0.1-1.6-0.2-3.1-0.8-4.6c4,0.8,8,1.1,12,0.8v14.8
		c3.6-9.2,17.8-13.8,42.7-13.8h26.8l-1.5,9.5C1381.7,2093.6,1362.8,2095.7,1356,2102.2z M1246.3,2216c29.5,0,46.9-16.2,52.2-48.6
		l9.5,2c-3.6,19.9-10.5,34.4-20.7,43.2c-9.7,8.5-23.4,12.8-40.9,12.8c-21.5,0-37.2-5.5-47.3-16.6c-9.5-10.9-14.3-27.7-14.3-50.4
		c0-47.2,20.5-70.8,61.6-70.8c17.7,0,31.2,3.2,40.4,9.7c9.9,7,16.6,18.8,20.2,35.5l-9.2,2.6c-3.2-14-8.8-24-16.6-30.2
		c-8-6-19.6-9-34.8-8.9c-17.6,0-30.5,4.7-38.9,14.1c-8.5,10.1-12.8,26.1-12.8,48.1c0,21.3,4.3,36.4,12.8,45.3
		C1215.5,2211.9,1228.4,2216,1246.3,2216z M1161.2,2159h-116.6c0,37.7,19.5,56.5,58.6,56.5c29.3,0,46.9-12,52.7-36.1l7.7,1.5
		c-6.5,29.3-26.6,44-60.3,44c-21.7,0-38.4-5.7-50.1-17.1c-11.8-11.6-17.6-28.2-17.6-49.9c0-47.1,22.2-70.6,66.5-70.6
		c38.9,0,60,21.7,63.4,65.2C1165.6,2156.8,1164.2,2159,1161.2,2159z M1101.8,2096.6c-35.8,0-54.8,17.6-57,52.7h111
		C1151.5,2114.1,1133.5,2096.6,1101.8,2096.6L1101.8,2096.6z M999.8,2213.2v-3.6c-9.7,11.6-23.4,17.4-40.9,17.4
		c-17.4,0-29.9-3.6-37.6-10.7c-7.7-7-11.5-18.2-11.5-33.8v-95.1h9.5v95.1c0,23.7,13.2,35.6,39.6,35.6c11.8,0,21.6-3.4,29.4-10.2
		c7.4-6.3,11.7-15.6,11.5-25.3v-95.1h9.7v137.8h-8.7L999.8,2213.2z M868.6,2038.8c0-9.2-0.4-15.9-1.3-20.2c4.4,2.2,8,3.1,10.7,2.8
		v203.3h-9.5L868.6,2038.8L868.6,2038.8z M824.2,2211.7c-7.8,9.2-20.7,13.8-38.6,13.8h-96.1v-188.7c0-7.8-0.2-13.9-0.5-18.2
		c1.1,0.4,2.2,0.8,3.3,1h82.1c18.1,0,30.2,3.3,36.3,10c6.1,6.6,9.2,20.1,9.2,40.4c0,21.8-4,36.1-12,43c18.6,5.6,27.9,23.5,27.9,53.7
		C835.7,2187.6,831.8,2202.6,824.2,2211.7L824.2,2211.7z M809.8,2070c0-16.7-2.2-27.6-6.6-32.7c-4.4-5.5-13.8-8.2-28.1-8.2h-75.4
		v81.3h78.2c12.1,0,20.4-2.8,24.8-8.4C807.4,2096.3,809.8,2085.7,809.8,2070L809.8,2070z M782.2,2120.9h-82.6v94.6H785
		c14.5,0,24.7-3.5,30.7-10.5c6.3-7.3,9.5-20.1,9.5-38.4s-3.1-30.5-9.2-36.8C810.2,2123.9,798.9,2120.9,782.2,2120.9L782.2,2120.9z
		 M473.6,2118.6h124.3v9.5H473.6V2118.6z"/>
        <path id="图" class="st0" d="M1809.6,753.4c19.3,2.1,30.4,2.7,30.4,2.7l2.8-14.1l32.1,20l-7.1,35.5
		C1855.3,789,1823.4,766.9,1809.6,753.4z M1646.2,254.1c0,0-2.3,29.8-43.2,15.1s-41.7-0.4-54.7,12s-30.1,0.8-30.1,0.8l-111.7,230.6
		c0,0,21.3,9,14.4,24.9s-18,23.6-16.5,40.8c0.6,6.4,0.9,13.4,9,21.1l-4.4,3.6l-181,141l-56-6l-33.1,25.4
		c-11.1-2.1-22.3,3.6-27.2,13.8c0,0-2,4.1-5.5,11.3L1047,834c0,0-20.6,13.6-7,32c7.3,9.8,13.6,17.6,17.9,22.8l-4,8.3l-4.9-6.1
		l-42,31c0,0-22,16,0,39c4,4.2,7.6,7.9,10.7,11.3c-16.6,34.5-32.5,67.5-44.8,93L924,1099c0,0-7.5-8.6-18.1-22.9l3.2-6.7l-0.7-0.3
		l-3.1,6.4c-5.6-7.6-12-16.8-18.7-27.1l4.1-8.3l-5.3-2.6l-2.5,5.1c-8.9-14.2-17-29-24.2-44.1L909,894.9l56.1-21.6l5.3,2.6l0.8-1.7
		h-0.1l-4.7-2.3l8-16.4l4.7,2.3l8.3-17.2l-4.7-2.3l8-16.4l4.7,2.3l8.7-18l-4.7-2.3l8-16.4l4.7,2.3l8.7-18l-4.7-2.3l7.6-15.6l4.7,2.3
		l8.7-18l-4.7-2.3l7.9-16.4l4.7,2.3l8.7-18l-4.7-2.3l7.9-16.4l4.7,2.3l8.7-18l-4.7-2.3l7.9-16.4l4.7,2.3l8.7-18l-4.7-2.3l7.9-16.4
		l4.7,2.3l8.7-18l-4.7-2.3l7.6-15.6l4.7,2.3l8.7-18l-4.7-2.3l7.9-16.4l4.7,2.3l8.7-18l-4.7-2.3l8-16.4l4.7,2.3l8.7-18l-4.7-2.3
		l8-16.4l4.7,2.3l8.7-18l-4.7-2.3l8-16.4l4.7,2.3l8.7-18l-4.7-2.3l8-16.4l4.7,2.3l8.7-18l-4.7-2.3l8-16.4l4.7,2.3l8.7-18l-4.7-2.3
		l8-16.4l4.7,2.3l8-16.4l-4.7-2.3l7.6-15.6l4.7,2.3h0.1l7.6-15.8l-31.6-15.3c0,0-19.7-6.4-8.4-29.7s55.4-114.3,55.4-114.3l65.3-35.1
		l27.4,13.2l68,33l12.8-27.1l-15.6-7.5l54.4-112.2l14.4,7l77.1,37.4l16.6,8L1532.6,166l-16.6-8l-13,26.9l50.5,24.5L1646.2,254.1z
		 M1467.1,358.5c2.6,1.3,5.7,0.2,7-2.4c0.1-0.1,21.3-44.1,21.4-44.2c1-2.7-0.3-5.7-3-6.7c-2.3-0.9-5,0-6.3,2.1
		c-0.1,0.2-21.4,44.1-21.5,44.3C1463.4,354.1,1464.5,357.3,1467.1,358.5L1467.1,358.5z M1477.2,297.8c-1.6-0.8-3.8,0.4-5.1,2.7
		c-0.1,0.2-21.4,44.1-21.5,44.3c-1.2,2.6-0.9,5.4,0.9,6.2s4.1-0.6,5.4-3.2c0.1-0.1,21.3-44,21.4-44.2
		C1479.3,301.1,1478.8,298.6,1477.2,297.8L1477.2,297.8z M1433.7,427.3c2.6,1.3,5.7,0.2,7-2.4c0.1-0.1,21.3-44.1,21.4-44.2
		c1-2.7-0.3-5.7-3-6.7c-2.3-0.9-5,0-6.3,2.1c-0.1,0.2-21.4,44.1-21.5,44.3C1430.1,423,1431.1,426.1,1433.7,427.3L1433.7,427.3
		L1433.7,427.3z M1417.4,391.4l9.5-19.5l-72.7-35.2l-9.5,19.5L1417.4,391.4z M1321.9,405l-9.5,19.5l72.7,35.2l9.5-19.5L1321.9,405z
		 M1417.2,413.5c-1.2,2.6-0.9,5.4,0.9,6.2s4.1-0.6,5.4-3.2c0.1-0.1,21.3-44.1,21.4-44.2c1-2.5,0.6-5-1-5.8s-3.8,0.4-5.1,2.7
		C1438.6,369.4,1417.3,413.4,1417.2,413.5L1417.2,413.5z M1400.4,496.1c2.6,1.3,5.7,0.2,7-2.4l0,0c0.1-0.1,21.3-44.1,21.4-44.2
		c1-2.7-0.3-5.7-3-6.7c-2.3-0.9-5,0-6.3,2.1c-0.1,0.2-21.4,44.1-21.5,44.3C1396.7,491.8,1397.8,494.9,1400.4,496.1L1400.4,496.1
		L1400.4,496.1z M1384.8,488.6c1.7,0.8,4.1-0.6,5.4-3.2c0.1-0.1,21.3-44.1,21.4-44.2c1-2.5,0.6-5-1-5.8s-3.8,0.4-5.1,2.7
		c-0.1,0.2-21.4,44.1-21.5,44.3C1382.7,484.9,1383,487.7,1384.8,488.6L1384.8,488.6z M1351.4,557.4c1.7,0.8,4.1-0.6,5.4-3.2
		c0.1-0.1,21.3-44.1,21.4-44.2c1-2.5,0.6-5-1-5.8s-3.8,0.4-5.1,2.7c-0.1,0.2-21.4,44.1-21.5,44.3
		C1349.3,553.7,1349.7,556.5,1351.4,557.4L1351.4,557.4z M1351.9,528.6l9.5-19.5l-72.7-35.2l-9.5,19.5L1351.9,528.6z M1226.5,410.2
		c-3.3,2.8-3.8,7.7-1,11c2.7,3.2,7.4,3.7,10.8,1.2c0.1,0,43.2-33.3,43.3-33.3c3.4-2.7,3.9-7.6,1.2-11c-2.7-3.4-7.6-3.9-11-1.2
		C1269.7,377,1226.6,410.2,1226.5,410.2z M1260.7,341.8c-3.3,2.8-3.8,7.7-1,11c2.7,3.2,7.4,3.8,10.8,1.2c0.1,0,43.2-33.3,43.3-33.3
		c3.4-2.7,3.9-7.6,1.2-11c-2.7-3.4-7.6-3.9-11-1.2C1303.8,308.6,1260.7,341.8,1260.7,341.8L1260.7,341.8z M1292.9,283.9
		c2.7,3.3,7.5,3.9,10.8,1.3c0.1,0,43.2-33.3,43.3-33.3c3.4-2.7,3.9-7.6,1.2-11c-2.7-3.4-7.6-3.9-11-1.2c0,0-43.2,33.2-43.2,33.3
		C1290.7,275.8,1290.2,280.6,1292.9,283.9z M1381.5,172.1c-2.7-3.4-7.6-3.9-11-1.2c0,0-43.2,33.2-43.2,33.3c-3.3,2.8-3.8,7.7-1,11
		c2.7,3.2,7.4,3.7,10.8,1.2c0.1,0,43.2-33.3,43.3-33.3C1383.7,180.4,1384.2,175.5,1381.5,172.1L1381.5,172.1L1381.5,172.1z
		 M1378.8,287.7l72.7,35.2l9.5-19.5l-72.7-35.2L1378.8,287.7z M1421.6,199.4l-9.5,19.5l72.7,35.2l9.5-19.5L1421.6,199.4z
		 M1510.6,229c-1.6-0.8-3.8,0.4-5.2,2.7c-0.1,0.2-21.4,44.1-21.5,44.3c-1.2,2.6-0.9,5.4,0.9,6.2s4.1-0.6,5.4-3.2
		c0.1-0.1,21.3-44.1,21.4-44.2C1512.6,232.3,1512.2,229.8,1510.6,229z M1526.2,236.6c-2.4-1.2-5.3-0.3-6.7,1.9
		c-0.1,0.2-21.4,44.1-21.5,44.3c-1.3,2.6-0.2,5.7,2.4,7s5.7,0.2,7-2.4c0.1-0.1,21.3-44.1,21.4-44.2
		C1529.7,240.6,1528.6,237.7,1526.2,236.6L1526.2,236.6z M2154.9,299.9l-98.3,77.4l-11.4-14.5l-23.6,18.6l34.9,44.3l63.9,81.2
		c0,0-15.1,25.9-45.6-5.3s-37.4-18.7-54.6-13.2s-27.5-12.5-27.5-12.5L1790.5,635c0,0,15.3,17.5,2,28.8s-26.6,13.4-32.8,29.5
		s-16.1,35.4,111,126c11.9,34.4-7.3,58.2-7.3,58.2l-7.1,7c17.5,15.4,37.6,32.4,60,50.5c86.8,69.7,158.5,110.2,158.5,110.2l8.8-11.5
		l20.2,32.2l-95.5,125.6l-29-20.6l3-4c0,0-107.8-66.4-172.4-120.1c-22.2-18.4-43.8-37.7-62.7-55.1l-18.6,18.3l-16.4,12.9
		c0,0-36.3-44.2-56.4-8s-52.4,85-109.7,88.3c-29.7,21.6-53.2,39.6-53.2,39.6s3.2,106.5,55.1,235.1c-5.1,1.5-10.5,3-16.2,4.3
		c-50.5,11.8-99.9,13-154.9,2.6l-3.7-4.6l-4,3.1c-0.5-0.1-0.9-0.2-1.4-0.3c-0.4-1.4-0.9-2.8-1.3-4.2l6.2-4.9l-3.8-4.8l-4.4,3.4
		c-0.5-1.5-0.9-3-1.4-4.5l8.6-6.7l-3.8-4.8l-6.7,5.2c-0.5-1.8-1.1-3.6-1.6-5.4l9.1-7.2l-3.8-4.8l-7.2,5.7c-0.5-1.8-1-3.6-1.5-5.4
		l11-8.6l-3.8-4.8l-8.9,7c-0.5-1.8-1-3.7-1.5-5.5l12-9.4l-3.8-4.8l-9.9,7.8l-1.4-5.6l14.2-11.2l-3.8-4.8l-12.1,9.5
		c-0.5-1.9-0.9-3.7-1.3-5.6l15-11.8l-3.8-4.8l-12.7,10c-0.4-1.9-0.9-3.8-1.3-5.7l15.6-12.2l-3.8-4.8l-13.2,10.4
		c-0.5-2.2-0.9-4.4-1.4-6.7l15.6-12.3l-3.8-4.8l-13.2,10.4c-0.4-2.2-0.9-4.5-1.3-6.8l14.8-11.7l-3.8-4.8l-12.3,9.7
		c-3.7-20.7-6.4-41.5-7.9-62.4c-3.4-15.5-30-51-54.6-54.4c-3.5-0.7-8-1.6-13.3-2.5c-17.9-3.2-45.6-7.4-77.7-11.9
		c-15.4,12.3-31,24.4-31,24.4s-36.9,28.9-54.6,43c-12.1-0.9-22.5-1.5-30.9-1.8c-9.4-12.1-5.5-6.9-9.1-11.6
		c-21.2,15.9-16.4,12.9-16.4,12.9l1.3,20.9c-38.4-31.4-74.9-65-109.5-100.5l37.2-29.3l56.8-44.7l0.9-21.8l28.1-22.1l15.7-43.5
		l-20.6,16.2l-9.2-11.7l30.2-23.7l23.7-18.8l-0.5-0.6l-27.2,21.4l-26.7,21l-2.1,1.6l-12.4-15.8l28.8-22.7l3.6,4.3l27.1-21.4
		l-8.8-11.3l14.3-11.2l-3.6-4.6l-7.3,5.7l-25.5-32.4l116.5-91.7l60.1,5.1l3.6,4.6l1.5-1.2l-0.1-0.1l-3.2-4.1l14.4-11.3l3.2,4.1
		l15.1-11.9l-3.2-4.1l14.4-11.3l3.2,4.1l15.8-12.4l-3.2-4.1l14.4-11.3l3.2,4.1l15.8-12.4l-3.2-4.1l13.7-10.8l3.2,4.1l15.8-12.4
		l-3.2-4.1l14.4-11.3l3.2,4.1l15.8-12.4l-3.2-4.1l14.4-11.3l3.2,4.1l15.8-12.4l-3.2-4.1l14.4-11.3l3.2,4.1l15.8-12.4l-3.2-4.1
		l14.4-11.3l3.2,4.1l15.8-12.4l-3.2-4.1l13.7-10.8l3.2,4.1l15.8-12.4l-3.2-4.1l14.4-11.3l3.2,4.1l15.8-12.4l-3.2-4.1l14.4-11.3
		l3.2,4.1l15.8-12.4l-3.2-4.1l14.4-11.3l3.2,4.1l15.8-12.4l-3.2-4.1l14.4-11.3l3.2,4.1l15.8-12.4l-3.2-4.1l14.4-11.3l3.2,4.1
		l15.8-12.4l-3.2-4.1l14.4-11.3l3.2,4.1l15.8-12.4l-3.2-4.1l14.4-11.3l3.2,4.1l14.4-11.3l-3.2-4.1l13.7-10.8l3.2,4.1l0.1,0.1
		l13.8-10.9l-21.8-27.7c0,0-15-14.4,5.5-30.5s100.2-78.8,100.2-78.8l74.3-3l19,24l46.9,59.6l23.4-18.8l-10.7-13.6l98.3-77.4
		l41.2,52.4l21.9,27.9l0,0L2154.9,299.9z M1860.9,984c50.9,42,106.6,80.4,106.6,80.4l7.4-10.3c0,0-52.9-35.8-100.9-76
		c-21.3-17.9-42.7-36.5-60.2-51.9l-9.4,9.2C1820.7,949.8,1840.5,967.1,1860.9,984z M1443.7,748.6c-8.6-11-24.5-12.9-35.5-4.2
		c-0.2,0.2-294.5,233-294.7,233.1c-10.7,9-12.1,24.9-3.1,35.6c8.6,10.2,23.6,12,34.3,4.1c0.2-0.2,294.6-233,294.8-233.1
		C1450.5,775.5,1452.4,759.6,1443.7,748.6z M1912.8,522.5c1.8,2.3,5.1,2.7,7.3,0.9c0.1-0.1,38.6-30.4,38.7-30.5
		c2.1-2,2.2-5.3,0.2-7.4c-1.7-1.8-4.5-2.2-6.6-0.9c-0.2,0.1-38.7,30.4-38.8,30.5C1911.4,517,1911,520.2,1912.8,522.5L1912.8,522.5
		L1912.8,522.5z M1902,508.8c1.2,1.5,4,1.3,6.3-0.5c0.1-0.1,38.6-30.4,38.7-30.5c2-1.8,2.8-4.3,1.6-5.7c-1.1-1.4-3.6-1.3-5.8,0.2
		c-0.2,0.1-38.7,30.4-38.8,30.5C1901.7,504.6,1900.8,507.3,1902,508.8L1902,508.8z M1852.5,570c1.8,2.3,5.1,2.7,7.3,0.9l0,0
		c0.1-0.1,38.6-30.4,38.7-30.5c2.1-2,2.2-5.3,0.3-7.4c-1.7-1.8-4.5-2.2-6.6-0.9c-0.2,0.1-38.7,30.4-38.8,30.5
		C1851.1,564.4,1850.7,567.7,1852.5,570L1852.5,570L1852.5,570z M1841.7,556.3c1.2,1.5,4,1.3,6.3-0.5c0.1-0.1,38.6-30.4,38.7-30.5
		c2-1.8,2.8-4.3,1.6-5.7c-1.1-1.4-3.6-1.3-5.8,0.2c-0.2,0.1-38.7,30.4-38.8,30.5C1841.4,552.1,1840.5,554.8,1841.7,556.3
		L1841.7,556.3z M1870.6,516.9l-50.2-63.7l-17.1,13.5l50.2,63.7L1870.6,516.9z M1792.2,617.5c1.8,2.3,5.1,2.7,7.3,0.9
		c0.1-0.1,38.6-30.4,38.7-30.5c2.1-2,2.2-5.3,0.3-7.4c-1.7-1.8-4.5-2.2-6.6-0.9c-0.2,0.1-38.7,30.4-38.8,30.5
		C1790.8,611.9,1790.4,615.2,1792.2,617.5z M1781.4,603.8c1.2,1.5,4,1.3,6.3-0.5c0.1-0.1,38.6-30.4,38.7-30.5c2-1.8,2.7-4.3,1.6-5.7
		s-3.6-1.3-5.8,0.2c-0.2,0.1-38.7,30.4-38.8,30.5C1781.1,599.6,1780.2,602.2,1781.4,603.8L1781.4,603.8z M1794.4,578l17.1-13.5
		l-50.2-63.7l-17.1,13.5L1794.4,578z M1701.1,548.2l-17.1,13.5l50.2,63.7l17.1-13.5L1701.1,548.2z M1766.1,620.2
		c2-1.8,2.7-4.3,1.6-5.7s-3.6-1.3-5.8,0.2c-0.2,0.1-38.7,30.4-38.8,30.5c-2.3,1.8-3.2,4.5-2,6s4,1.3,6.3-0.5
		C1727.5,650.6,1766,620.3,1766.1,620.2z M1717.4,868.4l-11.7-89.7l10.6-8.3l10.1,67l25,5.1l-13.4-88.2l-16.1-20.5l-42.2,33.2
		l13.2,95.8L1717.4,868.4z M1577.6,930.3l-60.5,47.6c-3.5,14.1-4.2,30.5,5.5,45.2c17.8,27,40.8,29.1,40.8,29.1
		c2.5,0.4,4.6,6.7,0.3,7.5c-48.8-4.5-65.1-38.3-73.6-60.7l-12.7,10c0,0-21.7,13.8,3.6,45.8c25.3,32.1,66.8,28.7,114.7-7.9
		s49.1-84.6,29.2-109.1S1577.6,930.3,1577.6,930.3z M1597.8,831.5l32.4,7.4l19.3-15.2l10.2,65l25.8,5.8l-16.4-119.2L1597.8,831.5z
		 M1673,463.6c-4.2,1-6.8,5.3-5.7,9.5c1,4.1,5.1,6.6,9.2,5.8c0.1,0,53.6-11,53.7-11.1c4.2-1,6.8-5.3,5.8-9.5s-5.2-6.8-9.3-5.8
		C1726.5,452.5,1673,463.6,1673,463.6L1673,463.6z M1733.8,416.8c-4.2,1.1-6.8,5.3-5.7,9.5c1,4.1,5,6.6,9.2,5.8
		c0.1,0,53.6-11,53.7-11.1c4.2-0.9,6.9-5.1,6-9.4c-0.9-4.2-5.1-6.9-9.4-6h-0.1C1787.4,405.8,1733.9,416.8,1733.8,416.8L1733.8,416.8
		z M1794.1,369.3c-4.2,1-6.8,5.3-5.7,9.5c1,4.1,5.1,6.6,9.2,5.8c0.1,0,53.6-11,53.7-11.1c4.2-1,6.8-5.2,5.8-9.5
		c-1-4.2-5.2-6.8-9.4-5.8C1847.7,358.3,1794.2,369.3,1794.1,369.3L1794.1,369.3z M1917.4,316.7c-1-4.2-5.2-6.9-9.4-5.9l0,0l-53.6,11
		c-4.2,1-6.8,5.3-5.7,9.5c1,4.1,5.1,6.6,9.2,5.8l53.7-11.1C1915.8,325.1,1918.4,320.9,1917.4,316.7L1917.4,316.7z M1881.3,406.4
		l-17.1,13.5l50.2,63.7l17.1-13.5L1881.3,406.4z M1941.6,358.9l-17.1,13.5l50.2,63.7l17.1-13.5L1941.6,358.9z M2008.9,424.7
		c-1.1-1.4-3.6-1.3-5.8,0.2c-0.2,0.1-38.7,30.4-38.8,30.5c-2.3,1.8-3.2,4.5-1.9,6s4,1.3,6.3-0.5c0.1-0.1,38.6-30.4,38.7-30.5
		C2009.3,428.6,2010.1,426.1,2008.9,424.7L2008.9,424.7z M2019.7,438.4c-1.7-2.1-4.6-2.6-6.9-1.2c-0.2,0.1-38.7,30.4-38.8,30.5
		c-2.3,1.8-2.7,5.1-0.9,7.3s5.1,2.7,7.3,0.9l0,0c0.1-0.1,38.6-30.4,38.7-30.5C2021.2,443.6,2021.4,440.5,2019.7,438.4L2019.7,438.4z
		 M1037,700l-0.6,0.8c-80.9-3.2-149.2,17.7-190.7,65.6c-101.5,117.5,3.1,353.6,240,517.5s494.7,178.4,568.8,42
		c36.4-67,22.3-156.6-28.4-247.5c9.4-10.2,26.1-29.3,37.9-47.4c17.3-26.5,28.4-5,38,2s17,4.1,27-3s18-19,18-19s23.5,22.1,59.1,51.7
		l-12.9,4.1c14.5,22.9,27.7,46.5,39.8,70.7l144,55.2c13.1,28.6,24.3,58,33.6,88l-130.8-14.9c5.1,22,8.3,44.4,9.7,66.9l145.9,97.1
		c0.3,26.1-2.1,52.1-7.1,77.6l-152.4-63.5c-3.1,9.4-6.8,18.6-11.1,27.6c-4.1,8.6-8.7,17-13.8,25.1l125.8,130.7
		c-14.7,20.3-31.9,38.6-51.3,54.6l-151.7-109.3c-18.7,11.6-38.6,21.1-59.3,28.4l81.4,148c-30.4,9-61.6,15.2-93.1,18.6l-123.4-142.8
		c-28.9,0.8-57.9-0.3-86.7-3.4l16,141.6c-41-5.9-81.6-14.1-121.6-24.8l-67.8-154c-32.9-10.4-66.4-22.9-100.1-37.3l-58.9,108.4
		c-42.5-19.8-85.2-42.2-127.8-67.1l6-136.9c-15.7-9.9-31.3-20.3-46.9-31c-16.1-11.1-31.7-22.5-47-34l-125.9,53.8
		c-38.3-31.1-74.2-63.2-107.8-96.1l80.7-93.4c-25.2-26.4-48.5-53.1-69.7-80.2l-167.9-9.1c-24-33.8-46.1-69-66-105.3l138.1-34.9
		c-12.9-25.6-24-52.1-33.3-79.2l-177.1-65.1c-7.9-30.8-13.1-62.2-15.4-93.9l167.2,23.9c-0.4-21.7,1.4-43.4,5.6-64.8L417.3,638.3
		c8.1-23.8,19.2-46.5,33.1-67.5l166.7,71.6c5.7-7.5,11.8-14.7,18.4-21.5c6.8-7,14-13.7,21.6-19.9L543.8,480.8
		c22.2-13.8,45.8-25.3,70.4-34.2l142.3,102.3c21.3-6.6,43.1-11.4,65.3-14.4l-60.1-117.2c31.5-1.9,63-1.8,94.4,0.3l102.4,115.3
		c26.7,2.7,53.2,6.7,79.5,12.1l-5.1-98.7c34.4,8.6,69.3,19.1,104.6,31.3l2.6,5.4L1037,700z M546.2,1328l28.6-89.5
		c26.2,6.7,52,15,77.2,24.9l70.6,120.1c15.6,8.7,31.2,18.3,46.4,28.8c14.9,10.3,29,21.1,42.3,32.4l137.6,23.7
		c18.1,19.9,34.9,41,50.4,63l-73.4,58.1c11.7,26.4,18.1,52.1,18.4,75.8l120.4,121.4c-2.8,8-6.2,15.8-10.3,23.2
		c-4.2,7.6-9.1,14.8-14.6,21.5l-155.4-67.8c-21.1,9.9-46.8,14.9-75.5,14.8l-25.4,107.8c-28.6-5.9-56.8-13.9-84.3-23.9l-77.1-138.9
		c-33.3-18.4-64.6-40.2-93.6-64.9l-156.8-23.1c-19.1-22.3-36.6-46-52.2-70.9l92.2-62c-9.7-26.1-14-51.2-12.2-73.9L281.1,1307
		c4.4-7.6,9.4-14.8,15.1-21.5c5.6-6.5,11.7-12.6,18.3-18.1l156.2,69.9C492.6,1329.6,518.3,1326.6,546.2,1328z M626.8,1618.2
		c70.2,48.6,148.1,55.4,173.4,16.1c24.8-38.6-10.3-107.3-78-154.1s-144.3-55.4-171.7-18.6C522.6,1499.2,556.5,1569.6,626.8,1618.2
		L626.8,1618.2z"/>
</g>
</svg>
