<svg id="图层_1" data-name="图层 1" xmlns="http://www.w3.org/2000/svg" viewBox="0 0 871.08 464.44"><defs><style>.cls-1{stroke:#000;stroke-miterlimit:10;}</style></defs><polygon class="cls-1" points="827.43 463.94 673.17 463.94 441.54 214.29 595.8 214.29 827.43 463.94"/><path class="cls-1" d="M7629.08,7130.8a162.37,162.37,0,0,1-128,158.84l-100.88-107.81h68.77a51,51,0,0,0,0-102.06H7304.65L7200.34,6968.3h266.24a162.35,162.35,0,0,1,162.5,162.5Z" transform="translate(-6758.5 -6967.8)"/><path class="cls-1" d="M7059,6969.34h-12.92c2.13-.12,4.29-.19,6.46-.19S7056.91,6969.22,7059,6969.34Z" transform="translate(-6758.5 -6967.8)"/><path class="cls-1" d="M7064.15,7193.38h-24a114.6,114.6,0,0,1,24,0Z" transform="translate(-6758.5 -6967.8)"/><line class="cls-1" x1="296.93" y1="79.85" x2="293.59" y2="79.85"/><line class="cls-1" x1="294.82" y1="304.06" x2="290.53" y2="304.06"/><line class="cls-1" x1="218.41" y1="304.06" x2="210.96" y2="304.06"/><polygon class="cls-1" points="258.95 451.06 76.78 451.06 1.15 369.74 183.32 369.74 187.02 373.72 249.82 441.25 249.83 441.25 258.95 451.06"/><path class="cls-1" d="M7164.72,7305.32A112.56,112.56,0,0,1,7059,7417.68l-74.53-80.15h73.85l-.62-.66a32.87,32.87,0,0,0-4.39-65c-.72-.06-1.43-.08-2.15-.08s-1.44,0-2.15.08h-72.12a31.65,31.65,0,0,0-7.45,0H6834.17l-73-78.48h303c1.54.17,3.06.36,4.59.59a112.67,112.67,0,0,1,90.92,77.89,111.41,111.41,0,0,1,4.73,25Q7164.72,7301,7164.72,7305.32Z" transform="translate(-6758.5 -6967.8)"/><path class="cls-1" d="M7164.29,7080.88a111.2,111.2,0,0,1-4.57,31.68,110,110,0,0,1-13.93,29.91,112.13,112.13,0,0,1-19.44,22.3h-84.77l-20.74-22.3L6993,7112.56h69.84l-1-1.05a32.47,32.47,0,0,0-6.47-63.86c-.56,0-1.12,0-1.67,0s-1.11,0-1.67,0H6834.8L6762,6969.34H7059a111.58,111.58,0,0,1,105.25,111.54Z" transform="translate(-6758.5 -6967.8)"/></svg>