<?xml version="1.0" encoding="utf-8"?>
<!-- Generator: Adobe Illustrator 25.2.1, SVG Export Plug-In . SVG Version: 6.00 Build 0)  -->
<svg version="1.1" id="图层_1" xmlns="http://www.w3.org/2000/svg" xmlns:xlink="http://www.w3.org/1999/xlink" x="0px" y="0px"
	 viewBox="0 0 871.1 464.4" style="enable-background:new 0 0 871.1 464.4;" xml:space="preserve">
<style type="text/css">
	.st0{fill:url(#SVGID_1_);stroke:#000000;stroke-miterlimit:10;}
	.st1{fill:url(#SVGID_2_);stroke:#000000;stroke-miterlimit:10;}
	.st2{stroke:#000000;stroke-miterlimit:10;}
	.st3{fill:none;stroke:#000000;stroke-miterlimit:10;}
	.st4{fill:url(#SVGID_3_);stroke:#000000;stroke-miterlimit:10;}
	.st5{fill:url(#SVGID_4_);stroke:#000000;stroke-miterlimit:10;}
	.st6{fill:url(#SVGID_5_);stroke:#000000;stroke-miterlimit:10;}
</style>
<linearGradient id="SVGID_1_" gradientUnits="userSpaceOnUse" x1="408.1704" y1="570.2222" x2="833.1704" y2="136.2222">
	<stop  offset="1.545059e-07" style="stop-color:#AAFFE6"/>
	<stop  offset="0.1302" style="stop-color:#55F3FF"/>
	<stop  offset="0.2464" style="stop-color:#6AAEFF"/>
	<stop  offset="0.4385" style="stop-color:#5855FF"/>
	<stop  offset="0.6307" style="stop-color:#8E3FFF"/>
	<stop  offset="0.7827" style="stop-color:#DC55FF"/>
	<stop  offset="1" style="stop-color:#FFAAF5"/>
</linearGradient>
<polygon class="st0" points="827.4,463.9 673.2,463.9 441.5,214.3 595.8,214.3 "/>
<linearGradient id="SVGID_2_" gradientUnits="userSpaceOnUse" x1="307.2061" y1="471.3516" x2="732.2061" y2="37.3516">
	<stop  offset="1.545059e-07" style="stop-color:#AAFFE6"/>
	<stop  offset="0.1302" style="stop-color:#55F3FF"/>
	<stop  offset="0.2464" style="stop-color:#6AAEFF"/>
	<stop  offset="0.4385" style="stop-color:#5855FF"/>
	<stop  offset="0.6307" style="stop-color:#8E3FFF"/>
	<stop  offset="0.7827" style="stop-color:#DC55FF"/>
	<stop  offset="1" style="stop-color:#FFAAF5"/>
</linearGradient>
<path class="st1" d="M870.6,163c0.1,76.5-53.2,142.6-128,158.8L641.7,214h68.8c28.2,0,51-22.8,51-51c0-28.2-22.8-51-51-51l0,0H546.1
	L441.8,0.5h266.2C797.7,0.4,870.5,73,870.6,162.7C870.6,162.8,870.6,162.9,870.6,163z"/>
<path class="st2" d="M300.5,1.5h-12.9c2.1-0.1,4.3-0.2,6.5-0.2S298.4,1.4,300.5,1.5z"/>
<path class="st2" d="M305.6,225.6h-24C289.6,224.7,297.7,224.7,305.6,225.6z"/>
<line class="st3" x1="296.9" y1="79.8" x2="293.6" y2="79.8"/>
<line class="st3" x1="294.8" y1="304.1" x2="290.5" y2="304.1"/>
<line class="st3" x1="218.4" y1="304.1" x2="211" y2="304.1"/>
<linearGradient id="SVGID_3_" gradientUnits="userSpaceOnUse" x1="186.303" y1="352.9557" x2="611.303" y2="-81.0443">
	<stop  offset="1.545059e-07" style="stop-color:#AAFFE6"/>
	<stop  offset="0.1302" style="stop-color:#55F3FF"/>
	<stop  offset="0.2464" style="stop-color:#6AAEFF"/>
	<stop  offset="0.4385" style="stop-color:#5855FF"/>
	<stop  offset="0.6307" style="stop-color:#8E3FFF"/>
	<stop  offset="0.7827" style="stop-color:#DC55FF"/>
	<stop  offset="0.9924" style="stop-color:#FFAAF5"/>
</linearGradient>
<polygon class="st4" points="259,451.1 76.8,451.1 1.1,369.7 183.3,369.7 187,373.7 249.8,441.2 249.8,441.2 "/>
<linearGradient id="SVGID_4_" gradientUnits="userSpaceOnUse" x1="171.3549" y1="338.3176" x2="596.3549" y2="-95.6824">
	<stop  offset="1.545059e-07" style="stop-color:#AAFFE6"/>
	<stop  offset="0.1302" style="stop-color:#55F3FF"/>
	<stop  offset="0.2464" style="stop-color:#6AAEFF"/>
	<stop  offset="0.4385" style="stop-color:#5855FF"/>
	<stop  offset="0.6307" style="stop-color:#8E3FFF"/>
	<stop  offset="0.7827" style="stop-color:#DC55FF"/>
	<stop  offset="1" style="stop-color:#FFAAF5"/>
</linearGradient>
<path class="st5" d="M406.2,337.5c0,59.5-46.3,108.7-105.7,112.4L226,369.7h73.9l-0.6-0.7c17.8-3.6,29.3-21,25.6-38.8
	c-3-14.5-15.2-25.2-30-26.2c-0.7-0.1-1.4-0.1-2.1-0.1s-1.4,0-2.1,0.1h-72.1c-2.5-0.3-5-0.3-7.5,0H75.7l-73-78.5h303
	c1.5,0.2,3.1,0.4,4.6,0.6c42.7,6.4,78.1,36.6,90.9,77.9c2.5,8.1,4.1,16.5,4.7,25C406.1,331.8,406.2,334.6,406.2,337.5z"/>
<linearGradient id="SVGID_5_" gradientUnits="userSpaceOnUse" x1="59.2707" y1="228.5578" x2="484.2708" y2="-205.4422">
	<stop  offset="1.545059e-07" style="stop-color:#AAFFE6"/>
	<stop  offset="0.1302" style="stop-color:#55F3FF"/>
	<stop  offset="0.2464" style="stop-color:#6AAEFF"/>
	<stop  offset="0.4385" style="stop-color:#5855FF"/>
	<stop  offset="0.6307" style="stop-color:#8E3FFF"/>
	<stop  offset="0.8265" style="stop-color:#DC55FF"/>
	<stop  offset="1" style="stop-color:#FFAAF5"/>
</linearGradient>
<path class="st6" d="M405.8,113.1c0,10.7-1.5,21.4-4.6,31.7c-3.1,10.6-7.8,20.7-13.9,29.9c-5.5,8.3-12,15.8-19.4,22.3h-84.8
	l-20.7-22.3l-27.8-29.9h69.8l-1-1c17.4-4.5,27.8-22.2,23.3-39.6c-3.6-13.7-15.6-23.6-29.8-24.3c-0.6,0-1.1,0-1.7,0s-1.1,0-1.7,0
	H76.3L3.5,1.5h297C359.6,4.9,405.8,53.9,405.8,113.1L405.8,113.1z"/>
</svg>
